<svg xmlns="http://www.w3.org/2000/svg" width="1200" height="720" viewBox="0 0 1200 720">
<rect width="100%" height="100%" fill="#ffffff"/>
<text x="105" y="38" font-family="Arial" font-size="25" font-weight="700" fill="#111827">ASM-C and Transformer: context peak memory</text>
<text x="105" y="66" font-family="Arial" font-size="14" fill="#4b5563">Unsupported Transformer lengths are omitted.</text>
<line x1="105" y1="630.00" x2="1145" y2="630.00" stroke="#e5e7eb"/>
<text x="93" y="635.00" text-anchor="end" font-family="Arial" font-size="12" fill="#4b5563">652.992</text>
<line x1="105" y1="525.00" x2="1145" y2="525.00" stroke="#e5e7eb"/>
<text x="93" y="530.00" text-anchor="end" font-family="Arial" font-size="12" fill="#4b5563">670.277</text>
<line x1="105" y1="420.00" x2="1145" y2="420.00" stroke="#e5e7eb"/>
<text x="93" y="425.00" text-anchor="end" font-family="Arial" font-size="12" fill="#4b5563">687.562</text>
<line x1="105" y1="315.00" x2="1145" y2="315.00" stroke="#e5e7eb"/>
<text x="93" y="320.00" text-anchor="end" font-family="Arial" font-size="12" fill="#4b5563">704.847</text>
<line x1="105" y1="210.00" x2="1145" y2="210.00" stroke="#e5e7eb"/>
<text x="93" y="215.00" text-anchor="end" font-family="Arial" font-size="12" fill="#4b5563">722.132</text>
<line x1="105" y1="105.00" x2="1145" y2="105.00" stroke="#e5e7eb"/>
<text x="93" y="110.00" text-anchor="end" font-family="Arial" font-size="12" fill="#4b5563">739.416</text>
<line x1="105.00" y1="105" x2="105.00" y2="630" stroke="#f3f4f6"/>
<text x="105.00" y="655" text-anchor="middle" font-family="Arial" font-size="12" fill="#4b5563">64</text>
<line x1="313.00" y1="105" x2="313.00" y2="630" stroke="#f3f4f6"/>
<text x="313.00" y="655" text-anchor="middle" font-family="Arial" font-size="12" fill="#4b5563">128</text>
<line x1="521.00" y1="105" x2="521.00" y2="630" stroke="#f3f4f6"/>
<text x="521.00" y="655" text-anchor="middle" font-family="Arial" font-size="12" fill="#4b5563">256</text>
<line x1="729.00" y1="105" x2="729.00" y2="630" stroke="#f3f4f6"/>
<text x="729.00" y="655" text-anchor="middle" font-family="Arial" font-size="12" fill="#4b5563">512</text>
<line x1="937.00" y1="105" x2="937.00" y2="630" stroke="#f3f4f6"/>
<text x="937.00" y="655" text-anchor="middle" font-family="Arial" font-size="12" fill="#4b5563">1K</text>
<line x1="1145.00" y1="105" x2="1145.00" y2="630" stroke="#f3f4f6"/>
<text x="1145.00" y="655" text-anchor="middle" font-family="Arial" font-size="12" fill="#4b5563">2K</text>
<polyline points="105.00,297.99 313.00,293.08 521.00,283.46 729.00,263.28 937.00,225.73 1145.00,148.75" fill="none" stroke="#7c3aed" stroke-width="3"/>
<circle cx="105.00" cy="297.99" r="4" fill="#7c3aed"/>
<circle cx="313.00" cy="293.08" r="4" fill="#7c3aed"/>
<circle cx="521.00" cy="283.46" r="4" fill="#7c3aed"/>
<circle cx="729.00" cy="263.28" r="4" fill="#7c3aed"/>
<circle cx="937.00" cy="225.73" r="4" fill="#7c3aed"/>
<circle cx="1145.00" cy="148.75" r="4" fill="#7c3aed"/>
<polyline points="105.00,586.25 313.00,559.14 521.00,503.06 729.00,374.08" fill="none" stroke="#dc2626" stroke-width="3"/>
<circle cx="105.00" cy="586.25" r="4" fill="#dc2626"/>
<circle cx="313.00" cy="559.14" r="4" fill="#dc2626"/>
<circle cx="521.00" cy="503.06" r="4" fill="#dc2626"/>
<circle cx="729.00" cy="374.08" r="4" fill="#dc2626"/>
<line x1="120" y1="88" x2="148" y2="88" stroke="#7c3aed" stroke-width="4"/>
<text x="156" y="93" font-family="Arial" font-size="14" fill="#111827">ASM-C</text>
<line x1="290" y1="88" x2="318" y2="88" stroke="#dc2626" stroke-width="4"/>
<text x="326" y="93" font-family="Arial" font-size="14" fill="#111827">Transformer</text>
<text x="625.0" y="695" text-anchor="middle" font-family="Arial" font-size="14" fill="#111827">Context length (log scale)</text>
<text x="25" y="367.5" text-anchor="middle" transform="rotate(-90 25 367.5)" font-family="Arial" font-size="14" fill="#111827">Peak CUDA memory (MiB)</text>
</svg>
