<svg xmlns="http://www.w3.org/2000/svg" width="1200" height="720" viewBox="0 0 1200 720">
<rect width="100%" height="100%" fill="#ffffff"/>
<text x="105" y="38" font-family="Arial" font-size="25" font-weight="700" fill="#111827">ASM-C versus ASM-R: peak CUDA memory</text>
<text x="105" y="66" font-family="Arial" font-size="14" fill="#4b5563">Peak allocated memory per streaming segment; lower is better.</text>
<line x1="105" y1="630.00" x2="1145" y2="630.00" stroke="#e5e7eb"/>
<text x="93" y="635.00" text-anchor="end" font-family="Arial" font-size="12" fill="#4b5563">320.016</text>
<line x1="105" y1="525.00" x2="1145" y2="525.00" stroke="#e5e7eb"/>
<text x="93" y="530.00" text-anchor="end" font-family="Arial" font-size="12" fill="#4b5563">482.054</text>
<line x1="105" y1="420.00" x2="1145" y2="420.00" stroke="#e5e7eb"/>
<text x="93" y="425.00" text-anchor="end" font-family="Arial" font-size="12" fill="#4b5563">644.092</text>
<line x1="105" y1="315.00" x2="1145" y2="315.00" stroke="#e5e7eb"/>
<text x="93" y="320.00" text-anchor="end" font-family="Arial" font-size="12" fill="#4b5563">806.130</text>
<line x1="105" y1="210.00" x2="1145" y2="210.00" stroke="#e5e7eb"/>
<text x="93" y="215.00" text-anchor="end" font-family="Arial" font-size="12" fill="#4b5563">968.169</text>
<line x1="105" y1="105.00" x2="1145" y2="105.00" stroke="#e5e7eb"/>
<text x="93" y="110.00" text-anchor="end" font-family="Arial" font-size="12" fill="#4b5563">1130.207</text>
<line x1="105.00" y1="105" x2="105.00" y2="630" stroke="#f3f4f6"/>
<text x="105.00" y="655" text-anchor="middle" font-family="Arial" font-size="12" fill="#4b5563">512</text>
<line x1="278.33" y1="105" x2="278.33" y2="630" stroke="#f3f4f6"/>
<text x="278.33" y="655" text-anchor="middle" font-family="Arial" font-size="12" fill="#4b5563">1K</text>
<line x1="451.67" y1="105" x2="451.67" y2="630" stroke="#f3f4f6"/>
<text x="451.67" y="655" text-anchor="middle" font-family="Arial" font-size="12" fill="#4b5563">2K</text>
<line x1="625.00" y1="105" x2="625.00" y2="630" stroke="#f3f4f6"/>
<text x="625.00" y="655" text-anchor="middle" font-family="Arial" font-size="12" fill="#4b5563">4K</text>
<line x1="798.33" y1="105" x2="798.33" y2="630" stroke="#f3f4f6"/>
<text x="798.33" y="655" text-anchor="middle" font-family="Arial" font-size="12" fill="#4b5563">8K</text>
<line x1="971.67" y1="105" x2="971.67" y2="630" stroke="#f3f4f6"/>
<text x="971.67" y="655" text-anchor="middle" font-family="Arial" font-size="12" fill="#4b5563">16K</text>
<line x1="1145.00" y1="105" x2="1145.00" y2="630" stroke="#f3f4f6"/>
<text x="1145.00" y="655" text-anchor="middle" font-family="Arial" font-size="12" fill="#4b5563">32K</text>
<polyline points="105.00,586.25 278.33,586.25 451.67,586.25 625.00,586.25 798.33,586.25 971.67,586.25 1145.00,586.25" fill="none" stroke="#7c3aed" stroke-width="3"/>
<circle cx="105.00" cy="586.25" r="4" fill="#7c3aed"/>
<circle cx="278.33" cy="586.25" r="4" fill="#7c3aed"/>
<circle cx="451.67" cy="586.25" r="4" fill="#7c3aed"/>
<circle cx="625.00" cy="586.25" r="4" fill="#7c3aed"/>
<circle cx="798.33" cy="586.25" r="4" fill="#7c3aed"/>
<circle cx="971.67" cy="586.25" r="4" fill="#7c3aed"/>
<circle cx="1145.00" cy="586.25" r="4" fill="#7c3aed"/>
<polyline points="105.00,586.09 278.33,585.92 451.67,585.59 625.00,557.27 798.33,498.91 971.67,382.19 1145.00,148.75" fill="none" stroke="#0f766e" stroke-width="3"/>
<circle cx="105.00" cy="586.09" r="4" fill="#0f766e"/>
<circle cx="278.33" cy="585.92" r="4" fill="#0f766e"/>
<circle cx="451.67" cy="585.59" r="4" fill="#0f766e"/>
<circle cx="625.00" cy="557.27" r="4" fill="#0f766e"/>
<circle cx="798.33" cy="498.91" r="4" fill="#0f766e"/>
<circle cx="971.67" cy="382.19" r="4" fill="#0f766e"/>
<circle cx="1145.00" cy="148.75" r="4" fill="#0f766e"/>
<line x1="120" y1="88" x2="148" y2="88" stroke="#7c3aed" stroke-width="4"/>
<text x="156" y="93" font-family="Arial" font-size="14" fill="#111827">ASM-C</text>
<line x1="290" y1="88" x2="318" y2="88" stroke="#0f766e" stroke-width="4"/>
<text x="326" y="93" font-family="Arial" font-size="14" fill="#111827">ASM-R</text>
<text x="625.0" y="695" text-anchor="middle" font-family="Arial" font-size="14" fill="#111827">Sequence length (log scale)</text>
<text x="25" y="367.5" text-anchor="middle" transform="rotate(-90 25 367.5)" font-family="Arial" font-size="14" fill="#111827">Peak CUDA memory (MiB)</text>
</svg>
